HIERARCHY
ROOT Hips
{
  OFFSET 5.84602e-005 68.8428 3.50346
  CHANNELS 6 Xposition Yposition Zposition Zrotation Xrotation Yrotation
  JOINT Spine
  {
    OFFSET 0 8.597 -4.6522
    CHANNELS 3 Zrotation Xrotation Yrotation
    JOINT Spine1
    {
      OFFSET 0 7.8454 0.4098
      CHANNELS 3 Zrotation Xrotation Yrotation
      JOINT Spine2
      {
        OFFSET 0 9.7078 -2.1609
        CHANNELS 3 Zrotation Xrotation Yrotation
        JOINT Neck
        {
          OFFSET 0 21.8761 -0.4549
          CHANNELS 3 Zrotation Xrotation Yrotation
          JOINT Head
          {
            OFFSET 0 12.3537 3.3602
            CHANNELS 3 Zrotation Xrotation Yrotation
            End Site
            {
              OFFSET 0.0001 18.9506 0.5657
            }
          }
        }
        JOINT LeftShoulder
        {
          OFFSET 2.2086 21.1115 7.2329
          CHANNELS 3 Zrotation Xrotation Yrotation
          JOINT LeftArm
          {
            OFFSET 13.1193 3.0282 -4.8998
            CHANNELS 3 Zrotation Xrotation Yrotation
            JOINT LeftForeArm
            {
              OFFSET 27.4081 -0.0973053 -0.2375
              CHANNELS 3 Zrotation Xrotation Yrotation
              JOINT LeftHand
              {
                OFFSET 22.8641 0.0662994 -0.1369
                CHANNELS 3 Zrotation Xrotation Yrotation
                JOINT LeftHandIndex1
                {
                  OFFSET 8.8614 0.775009 2.4612
                  CHANNELS 3 Zrotation Xrotation Yrotation
                  JOINT LeftHandIndex2
                  {
                    OFFSET 3.3146 -0.808304 0.5841
                    CHANNELS 3 Zrotation Xrotation Yrotation
                    JOINT LeftHandIndex3
                    {
                      OFFSET 2.2628 -0.552002 0.3989
                      CHANNELS 3 Zrotation Xrotation Yrotation
                      End Site
                      {
                        OFFSET 1.6102 -0.4807 0.2612
                      }
                    }
                  }
                }
                JOINT LeftHandMiddle1
                {
                  OFFSET 8.9937 0.895004 0.2143
                  CHANNELS 3 Zrotation Xrotation Yrotation
                  JOINT LeftHandMiddle2
                  {
                    OFFSET 4.0984 0.0113983 -0.0242
                    CHANNELS 3 Zrotation Xrotation Yrotation
                    JOINT LeftHandMiddle3
                    {
                      OFFSET 2.2716 0.00689697 -0.0138001
                      CHANNELS 3 Zrotation Xrotation Yrotation
                      End Site
                      {
                        OFFSET 2.0404 -0.1441 0.0027
                      }
                    }
                  }
                }
                JOINT LeftHandRing1
                {
                  OFFSET 8.5234 0.597198 -2.0164
                  CHANNELS 3 Zrotation Xrotation Yrotation
                  JOINT LeftHandRing2
                  {
                    OFFSET 3.7188 -0.188293 -0.2328
                    CHANNELS 3 Zrotation Xrotation Yrotation
                    JOINT LeftHandRing3
                    {
                      OFFSET 2.1191 -0.106598 -0.1332
                      CHANNELS 3 Zrotation Xrotation Yrotation
                      End Site
                      {
                        OFFSET 1.8737 -0.2304 -0.0886
                      }
                    }
                  }
                }
                JOINT LeftHandPinky1
                {
                  OFFSET 7.9094 -0.601089 -3.4825
                  CHANNELS 3 Zrotation Xrotation Yrotation
                  JOINT LeftHandPinky2
                  {
                    OFFSET 2.2874 -0.477005 -0.6314
                    CHANNELS 3 Zrotation Xrotation Yrotation
                    JOINT LeftHandPinky3
                    {
                      OFFSET 1.6774 -0.349396 -0.4633
                      CHANNELS 3 Zrotation Xrotation Yrotation
                      End Site
                      {
                        OFFSET 1.4888 -0.4091 -0.3416
                      }
                    }
                  }
                }
                JOINT LeftHandThumb1
                {
                  OFFSET 1.833 -1.3875 1.3896
                  CHANNELS 3 Zrotation Xrotation Yrotation
                  JOINT LeftHandThumb2
                  {
                    OFFSET 3.4129 -1.121 2.5732
                    CHANNELS 3 Zrotation Xrotation Yrotation
                    JOINT LeftHandThumb3
                    {
                      OFFSET 2.2474 -0.804199 1.6192
                      CHANNELS 3 Zrotation Xrotation Yrotation
                      End Site
                      {
                        OFFSET 1.6527 -0.5689 1.1317
                      }
                    }
                  }
                }
              }
            }
          }
        }
        JOINT RightShoulder
        {
          OFFSET -2.2086 21.1115 7.2329
          CHANNELS 3 Zrotation Xrotation Yrotation
          JOINT RightArm
          {
            OFFSET -13.1216 3.0287 -4.9007
            CHANNELS 3 Zrotation Xrotation Yrotation
            JOINT RightForeArm
            {
              OFFSET -27.4081 -0.0973053 -0.2375
              CHANNELS 3 Zrotation Xrotation Yrotation
              JOINT RightHand
              {
                OFFSET -22.8641 0.0664063 -0.1369
                CHANNELS 3 Zrotation Xrotation Yrotation
                JOINT RightHandIndex1
                {
                  OFFSET -8.8614 0.774994 2.4612
                  CHANNELS 3 Zrotation Xrotation Yrotation
                  JOINT RightHandIndex2
                  {
                    OFFSET -3.3146 -0.808304 0.5841
                    CHANNELS 3 Zrotation Xrotation Yrotation
                    JOINT RightHandIndex3
                    {
                      OFFSET -2.2628 -0.552002 0.3989
                      CHANNELS 3 Zrotation Xrotation Yrotation
                      End Site
                      {
                        OFFSET -1.6102 -0.4807 0.2612
                      }
                    }
                  }
                }
                JOINT RightHandMiddle1
                {
                  OFFSET -8.9937 0.894989 0.2143
                  CHANNELS 3 Zrotation Xrotation Yrotation
                  JOINT RightHandMiddle2
                  {
                    OFFSET -4.0984 0.0113983 -0.0242
                    CHANNELS 3 Zrotation Xrotation Yrotation
                    JOINT RightHandMiddle3
                    {
                      OFFSET -2.2716 0.00691223 -0.0138001
                      CHANNELS 3 Zrotation Xrotation Yrotation
                      End Site
                      {
                        OFFSET -2.0404 -0.1441 0.0027
                      }
                    }
                  }
                }
                JOINT RightHandRing1
                {
                  OFFSET -8.5234 0.597198 -2.0164
                  CHANNELS 3 Zrotation Xrotation Yrotation
                  JOINT RightHandRing2
                  {
                    OFFSET -3.7188 -0.188309 -0.2328
                    CHANNELS 3 Zrotation Xrotation Yrotation
                    JOINT RightHandRing3
                    {
                      OFFSET -2.1191 -0.106598 -0.1332
                      CHANNELS 3 Zrotation Xrotation Yrotation
                      End Site
                      {
                        OFFSET -1.8737 -0.2304 -0.0886
                      }
                    }
                  }
                }
                JOINT RightHandPinky1
                {
                  OFFSET -7.9094 -0.601105 -3.4825
                  CHANNELS 3 Zrotation Xrotation Yrotation
                  JOINT RightHandPinky2
                  {
                    OFFSET -2.2874 -0.477005 -0.6314
                    CHANNELS 3 Zrotation Xrotation Yrotation
                    JOINT RightHandPinky3
                    {
                      OFFSET -1.6774 -0.349396 -0.4633
                      CHANNELS 3 Zrotation Xrotation Yrotation
                      End Site
                      {
                        OFFSET -1.4888 -0.4091 -0.3416
                      }
                    }
                  }
                }
                JOINT RightHandThumb1
                {
                  OFFSET -1.833 -1.38751 1.3896
                  CHANNELS 3 Zrotation Xrotation Yrotation
                  JOINT RightHandThumb2
                  {
                    OFFSET -3.41299 -1.12099 2.5732
                    CHANNELS 3 Zrotation Xrotation Yrotation
                    JOINT RightHandThumb3
                    {
                      OFFSET -2.24741 -0.804108 1.6192
                      CHANNELS 3 Zrotation Xrotation Yrotation
                      End Site
                      {
                        OFFSET -1.6527 -0.5689 1.1317
                      }
                    }
                  }
                }
              }
            }
          }
        }
      }
    }
  }
  JOINT RightUpLeg
  {
    OFFSET -9.1966 3.8861 -0.7581
    CHANNELS 3 Zrotation Xrotation Yrotation
    JOINT RightLeg
    {
      OFFSET -0.7359 -41.0265 0
      CHANNELS 3 Zrotation Xrotation Yrotation
      JOINT RightFoot
      {
        OFFSET 0 -40.2855 0
        CHANNELS 3 Zrotation Xrotation Yrotation
        JOINT RightToeBase
        {
          OFFSET 0 -5.6122 11.7359
          CHANNELS 3 Zrotation Xrotation Yrotation
          End Site
          {
            OFFSET 0 0 7.8731
          }
        }
      }
    }
  }
  JOINT LeftUpLeg
  {
    OFFSET 9.1965 3.8864 -0.7581
    CHANNELS 3 Zrotation Xrotation Yrotation
    JOINT LeftLeg
    {
      OFFSET 0.7359 -41.0268 0
      CHANNELS 3 Zrotation Xrotation Yrotation
      JOINT LeftFoot
      {
        OFFSET 0 -40.2855 0
        CHANNELS 3 Zrotation Xrotation Yrotation
        JOINT LeftToeBase
        {
          OFFSET 0 -5.6122 11.7359
          CHANNELS 3 Zrotation Xrotation Yrotation
          End Site
          {
            OFFSET 0 0 7.8731
          }
        }
      }
    }
  }
}
MOTION
Frames:	4
Frame Time:	0.0333333
5.84602e-005 68.8428 3.50346 0 0 -0 0 0 -0 0 0 -0 0 0 -0 0 0 -0 0 0 -0 0 0 -0 0 0 -0 0 0 -0 0 0 -0 0 0 -0 0 0 -0 0 0 -0 0 0 -0 -0.0146107 -8.87603e-005 -2.63497e-007 2.99804e-018 -2.42657e-020 -1.42182e-022 0 0 -0 -0.0187562 -0.001176 5.858e-005 5.06224e-018 3.88251e-019 1.21329e-020 0 0 -0 -0.012269 -0.00324817 0.000675346 -1.74678e-018 3.88251e-019 -0 0 0 -0 0 0 -0 0 0 -0 0 0 -0 0 0 -0 0 0 -0 0 0 -0 0 0 -0 0 0 -0 0 0 -0 0 0 -0 0.0149955 -9.10982e-005 2.64101e-007 -9.69331e-018 1.21329e-020 -4.7394e-023 0 0 -0 0.0189956 -0.00119102 -5.96516e-005 -5.41541e-019 0 2.42657e-020 0 0 -0 0.0122698 -0.00324857 -0.000673756 -2.00796e-019 0 -1.94126e-019 0 0 -0 0 0 -0 0 0 -0 3.39842 1.33031 -0.0637918 -5.65207e-008 0.834868 -0.000436188 -3.39935 -2.16518 -0.0642563 -8.89002e-024 -1.18485e-023 -1.48106e-024 -3.39844 1.35642 0.0640283 -3.18788e-007 0.782166 -0.000588827 3.39931 -2.13858 0.0634662 1.1399e-023 0 -0 
6.43539e-005 50.2719 -22.8692 0 26.2936 -0 -1.26104 0.998966 -0.132236 -2.52034 2.00064 -0.242503 -2.52035 2.00063 -0.242503 -2.65598 -14.5382 -1.78277 -6.38064 -6.36726 -2.40762 2.90861 -10.7925 -3.66927 -20.4865 -20.0903 -26.5259 6.52819 30.6656 -31.9523 -8.97644 -16.4746 -3.08878 -3.18055e-015 4.77083e-015 1.27222e-014 3.18055e-015 -1.59028e-015 6.36111e-015 6.36111e-015 0 6.36111e-015 -3.18055e-015 4.77083e-015 1.27222e-014 -0.0146146 -8.97793e-005 6.82941e-006 1.09838e-006 2.05671e-008 1.93668e-007 -3.18055e-015 4.77083e-015 1.27222e-014 -0.0187872 -0.00117993 5.99409e-005 3.18055e-015 3.18055e-015 -0 -3.18055e-015 4.77083e-015 1.27222e-014 -0.0123021 -0.00325796 0.000678014 3.18055e-015 1.59028e-015 -0 -3.18055e-015 4.77083e-015 1.27222e-014 3.18055e-015 -1.59028e-015 6.36111e-015 6.36111e-015 0 6.36111e-015 0.10261 1.43687 9.31791 14.1512 -27.5729 31.5522 -15.9275 22.6136 49.9921 7.74267 -11.5688 -11.3127 3.19497e-007 -1.47049e-006 -7.60507e-006 -3.53113e-031 -3.18055e-015 -6.36111e-015 4.981e-007 -1.84909e-007 -5.66295e-006 3.19497e-007 -1.47049e-006 -7.60507e-006 0.0149321 -9.03608e-005 3.17658e-006 4.98601e-007 -1.8565e-007 -5.66292e-006 3.19497e-007 -1.47049e-006 -7.60507e-006 0.0190783 -0.00119621 -5.92046e-005 3.17519e-007 -1.47164e-006 -7.60482e-006 3.19497e-007 -1.47049e-006 -7.60507e-006 0.0123245 -0.00326464 -0.000687181 4.98357e-007 -1.85626e-007 -5.66296e-006 3.19497e-007 -1.47049e-006 -7.60507e-006 -3.53113e-031 -3.18055e-015 -6.36111e-015 4.981e-007 -1.84909e-007 -5.66295e-006 -11.3629 -32.0871 -14.5858 0.829802 48.5203 -6.94051 -6.28263 8.505 -1.14847 -3.03426e-006 2.28133e-006 2.3052e-007 11.3614 -32.1072 14.5844 -0.819654 48.538 6.93716 6.27355 8.2896 1.14448 -2.23642e-006 4.31932e-007 7.96722e-007 
0.000222773 33.2422 -49.2774 0 52.5872 -0 -2.54815 1.96933 -0.123259 -5.09658 3.94223 -0.158868 -5.09658 3.94224 -0.158868 -6.33512 -29.0313 -3.94805 -13.308 -12.7005 -4.90584 4.34484 -21.4487 -7.74813 -58.2929 -27.0036 -58.7247 43.4597 33.3592 -76.0538 -20.033 -32.7961 -7.05225 -5.50401e-007 5.30927e-007 3.74855e-007 -5.50401e-007 5.30927e-007 3.74855e-007 -5.50401e-007 5.30927e-007 3.74855e-007 -5.50401e-007 5.30927e-007 3.74855e-007 -0.0145775 -9.32144e-005 4.32373e-006 -5.50408e-007 5.30879e-007 3.74923e-007 -5.50401e-007 5.30927e-007 3.74855e-007 -0.0187996 -0.00117874 5.87473e-005 -5.50407e-007 5.30865e-007 3.74948e-007 -5.50401e-007 5.30927e-007 3.74855e-007 -0.0122567 -0.00324189 0.000677562 -5.50394e-007 5.30888e-007 3.74928e-007 -5.50401e-007 5.30927e-007 3.74855e-007 -5.50401e-007 5.30927e-007 3.74855e-007 -5.50401e-007 5.30927e-007 3.74855e-007 -0.254379 2.75947 18.6523 54.7687 -30.5038 72.5299 -48.5076 0.0055992 89.9975 10.7297 -21.7483 -23.96 1.14187e-006 3.60249e-007 -2.65763e-006 3.37699e-007 2.37303e-007 -1.06805e-007 5.46631e-007 8.26265e-007 2.12361e-006 1.14187e-006 3.60249e-007 -2.65763e-006 0.0150154 -8.98665e-005 3.71521e-006 3.37702e-007 2.37289e-007 -1.06837e-007 1.14187e-006 3.60249e-007 -2.65763e-006 0.0189591 -0.00119305 -6.63761e-005 3.37702e-007 2.37285e-007 -1.06848e-007 1.14187e-006 3.60249e-007 -2.65763e-006 0.0123002 -0.00325791 -0.000679706 3.37697e-007 2.37293e-007 -1.0684e-007 1.14187e-006 3.60249e-007 -2.65763e-006 3.37699e-007 2.37303e-007 -1.06805e-007 5.46631e-007 8.26265e-007 2.12361e-006 -51.6331 -56.4441 -47.4054 109.016 82.8581 -117.158 -7.80942 20.6899 -4.23119 1.59028e-015 -3.18055e-015 -3.77691e-015 51.6612 -56.4748 47.4331 -109.233 82.8411 117.392 7.8207 20.2553 4.20609 1.04741e-006 -4.79909e-007 1.23199e-006 
0.000546934 22.2397 -67.3916 0 70.9928 -0 -3.4588 2.64869 -0.0294457 -6.92739 5.2943 0.101486 -6.92739 5.29433 0.101492 -9.76929 -39.1648 -6.02052 -18.4935 -17.0129 -6.73194 4.3055 -28.7782 -11.0548 -86.91 -19.7753 -78.0228 64.5261 16.716 -91.4118 -29.6808 -44.0581 -11.0725 1.59028e-015 3.97569e-015 7.95139e-016 1.59028e-015 6.95746e-015 -7.95139e-016 -3.18055e-015 -5.96354e-015 -4.77083e-015 1.59028e-015 3.97569e-015 7.95139e-016 -0.0146083 -9.04671e-005 -7.33794e-007 1.59028e-015 -1.35174e-014 -7.95139e-016 1.59028e-015 3.97569e-015 7.95139e-016 -0.0187637 -0.00118018 6.0917e-005 -7.1726e-032 -5.1684e-015 -7.95139e-016 1.59028e-015 3.97569e-015 7.95139e-016 -0.0122707 -0.0032449 0.000668679 -5.51738e-032 -9.93923e-016 -3.18055e-015 1.59028e-015 3.97569e-015 7.95139e-016 1.59028e-015 6.95746e-015 -7.95139e-016 -3.18055e-015 -5.96354e-015 -4.77083e-015 -0.762557 3.50146 25.1802 80.2488 -15.3365 88.6376 -65.3001 -31.4434 90.6155 9.86012 -27.2166 -34.0418 -1.59028e-015 1.03368e-014 -7.95139e-016 -1.19271e-015 7.10655e-015 1.59028e-015 -7.95139e-016 7.10655e-015 -7.95139e-016 -1.59028e-015 1.03368e-014 -7.95139e-016 0.0149936 -9.15739e-005 2.99727e-006 -3.31043e-032 2.38542e-015 7.95139e-016 -1.59028e-015 1.03368e-014 -7.95139e-016 0.0189918 -0.00119453 -6.02229e-005 7.95139e-016 -1.83876e-015 7.95139e-016 -1.59028e-015 1.03368e-014 -7.95139e-016 0.0122687 -0.00325151 -0.000682395 1.84124e-006 -1.18115e-006 -4.89825e-007 -1.59028e-015 1.03368e-014 -7.95139e-016 -1.19271e-015 7.10655e-015 1.59028e-015 -7.95139e-016 7.10655e-015 -7.95139e-016 -100.97 -59.1306 -88.8641 159.499 55.7152 -168.641 -7.60335 29.1547 -6.97055 -3.93362e-006 -6.38543e-006 6.32224e-006 101.035 -59.1494 88.9297 -159.48 55.6666 168.643 7.65478 28.559 6.91098 4.82849e-006 -5.25679e-006 -1.19642e-005 
